<?xml version="1.0" encoding="UTF-8" standalone="no"?>
<!DOCTYPE svg PUBLIC "-//W3C//DTD SVG 1.1//EN" "http://www.w3.org/Graphics/SVG/1.1/DTD/svg11.dtd">
<svg version="1.1"
  xmlns="http://www.w3.org/2000/svg"
  xmlns:xlink="http://www.w3.org/1999/xlink" preserveAspectRatio="xMidYMid meet" viewBox="0 0 336 280" width="336" height="280">
  <defs>
    <path d="M18 115L27.86 115.7L37.72 115L46.87 112.18L55.32 107.96L63.07 101.62L71.52 93.87L76.45 86.13L79.97 76.97L76.45 68.52L68 71.34L63.07 79.08L61.66 90.35L61.66 101.62L61.66 113.59L60.25 125.56L57.44 138.94L53.21 150.92L50.39 159.37L45.46 170.63L39.13 183.31L32.79 193.87L27.86 201.62L20.11 207.96L14.48 195.99L14.48 186.13L15.18 176.27L20.82 167.11L27.15 158.66L34.2 151.62L45.46 143.87L57.44 135.42L70.82 127.68L81.38 122.75L91.24 117.82L102.51 113.59L95.46 121.34L87.72 129.08L80.68 138.94L75.75 146.69L72.93 155.85L72.23 165L80.68 168.52L87.72 158.66L91.94 148.8L96.17 137.54L100.39 127.68L102.51 117.82L104.62 128.38L104.62 137.54L104.62 146.69L104.62 155.85L104.62 167.11L111.66 157.96L115.89 143.17L120.11 129.08L125.04 119.23L134.2 119.93L136.31 129.08L137.01 142.46L137.01 153.73L138.42 143.17L141.94 131.2L144.76 122.75L149.69 114.3L158.14 110.77L168 119.23L170.82 134.72L171.52 143.87L172.23 157.25L172.23 166.41L172.23 175.56L174.34 160.77L177.15 152.32L179.97 143.87L187.01 132.61L194.76 124.86L202.51 119.23L210.25 115L201.8 119.93L195.46 126.97L190.54 135.42L189.83 145.28L194.76 154.44L203.21 157.25L214.48 155.14L224.34 150.21L233.49 143.87L241.94 135.42L247.58 127.68L250.39 119.23L242.65 114.3L234.2 121.34L228.56 130.49L228.56 140.35L232.79 151.62L241.94 157.96L251.8 160.07L260.96 160.07L272.93 155.85L282.08 149.51L288.42 143.17L294.76 134.72L301.1 127.68L306.03 119.23" id="c1x7YIKUxL"></path>
  </defs>
  <g>
    <g>
      <g>
        <g>
          <use xlink:href="#c1x7YIKUxL" opacity="1" fill-opacity="0" stroke="#74dbde" stroke-width="5" stroke-opacity="1"></use>
        </g>
      </g>
    </g>
  </g>
</svg>