<?xml version="1.0" encoding="UTF-8" standalone="no"?>
<!DOCTYPE svg PUBLIC "-//W3C//DTD SVG 1.1//EN" "http://www.w3.org/Graphics/SVG/1.1/DTD/svg11.dtd">
<svg version="1.1"
  xmlns="http://www.w3.org/2000/svg"
  xmlns:xlink="http://www.w3.org/1999/xlink" preserveAspectRatio="xMidYMid meet" viewBox="0 0 730 415" width="730" height="415">
  <defs>
    <path d="M47.96 171.98L79.44 163.71L107.92 155.45L137.9 147.19L164.88 135.62L193.36 117.45L215.85 94.32L230.84 66.23L233.84 29.88L208.35 8.4L176.87 18.31L160.38 46.4L152.89 79.45L149.89 112.49L149.89 147.19L149.89 178.58L149.89 214.94L149.89 251.29L149.89 287.64L140.9 323.99L125.91 358.69L106.42 385.12L80.94 403.3L47.96 406.6L19.48 388.43L8.98 357.03L10.48 315.73L23.97 285.98L41.96 257.9L65.95 231.46L91.43 209.98L116.91 191.8L151.39 175.28L182.87 162.06L212.85 152.15L247.33 143.89L278.81 140.58L247.33 148.84L212.85 168.67L194.86 196.76L190.36 228.15L199.36 259.55L229.34 264.5L250.33 239.72L268.31 206.67L280.31 175.28L280.31 209.98L280.31 241.37L284.8 272.77L287.8 231.46L292.3 200.06L305.79 170.32L332.77 152.15L362.75 157.1L374.74 186.85L376.24 228.15L385.24 193.46L398.73 162.06L427.21 150.5L446.7 180.24L454.19 219.89L454.19 251.29L452.69 214.94L458.69 181.89L482.67 163.71L514.15 150.5L485.67 162.06L475.18 193.46L491.67 219.89L527.64 234.76L563.62 236.42L592.1 236.42L620.58 223.2L643.07 200.06L650.56 168.67L628.08 148.84L599.6 150.5L578.61 173.63L577.11 206.67L595.1 234.76L629.58 243.02L659.56 236.42L692.53 219.89L721.02 196.76" id="b1u1HT0qIZ"></path>
  </defs>
  <g>
    <g>
      <g>
        <g>
          <use xlink:href="#b1u1HT0qIZ" opacity="1" fill-opacity="0" stroke="#000000" stroke-width="1" stroke-opacity="1"></use>
        </g>
      </g>
    </g>
  </g>
</svg>