<svg viewBox="0 0 431.4 100.9512" width="5000px" height="1170.0417689018518px"
  xmlns="http://www.w3.org/2000/svg"
  xmlns:xlink="http://www.w3.org/1999/xlink" preserveAspectRatio="none">
  <defs></defs>
  <style>.companyName {fill:#434BE7;fill-opacity:1;}.icon3 {fill:#E5E5E5;fill-opacity:1;}</style>
  <g opacity="1" transform="rotate(0 126.2387 0)">
    <svg width="305.1613" height="100.9512" x="126.2387" y="0" version="1.1" preserveAspectRatio="none" viewBox="2.52 -28 84.64 28">
      <g transform="matrix(1 0 0 1 0 0)" class="companyName">
        <path d="M6.96 0L11.48-22.72L2.52-22.72L3.60-28L28-28L26.92-22.72L18-22.72L13.44 0L6.96 0Z M25.88 0L31.48-28L38-28L33.44-5.28L47.48-5.28L46.40 0L25.88 0Z M81.60-28L87.16-28L81.60 0L75.52 0L78.80-16.64L68.12-2.96L65.24-2.96L59.48-16.80L56.12 0L50.04 0L55.64-28L60.92-28L67.92-10.56L81.60-28Z"></path>
      </g>
    </svg>
  </g>
  <g opacity="1" transform="rotate(0 0 0)">
    <svg width="126.2387" height="100.9512" x="0" y="0" version="1.1" preserveAspectRatio="none" viewBox="-4.6 -33.68 47.12 37.68">
      <g transform="matrix(1 0 0 1 0 0)" class="icon3">
        <path d="M-4.60 4L15.88-33.68L24.12-33.68L3.64 4L-4.60 4Z M13.80 4L34.28-33.68L42.52-33.68L22.04 4L13.80 4Z"></path>
      </g>
    </svg>
  </g>
</svg>